<svg id="Layer_10" data-name="Layer 10" xmlns="http://www.w3.org/2000/svg" viewBox="0 0 15.49463 13.03467">
  <title>signal-logo</title>
  <path d="M7.45081,6.81968Q6.79337,6.81895,6.136,6.81956c-.43829,0-.87659-.00189-1.31482.002a.4183.4183,0,0,0-.19452.04694.25882.25882,0,0,0-.11548.30133.28293.28293,0,0,0,.30371.20667q1.3212.001,2.64252.00006a.28975.28975,0,0,0,.32251-.27673C7.78333,6.93327,7.65106,6.81993,7.45081,6.81968Zm7.34351,5.041a3.70093,3.70093,0,0,0-3.3562-5.256l-.07159.00067c-.04651.00092-.08936.01373-.13538.0163.00159-.05243.01514-.10242.01514-.15509A5.05743,5.05743,0,0,0,2.61273,2.89042a5.0589,5.0589,0,0,0-.80945,6.096L.42206,12.47355l3.54761-1.46149a4.93853,4.93853,0,0,0,3.89227.20923,3.6919,3.6919,0,0,0,5.476,2.25763l2.5788.9649Zm-7.05518-1.4765a4.175,4.175,0,0,1-3.55182-.2l-.17444-.09412-2.0885.86047.81085-2.04681-.11407-.17987a4.22164,4.22164,0,1,1,7.78918-2.25732c0,.106-.02356.20538-.03131.30945a3.69407,3.69407,0,0,0-2.641,3.599Zm5.5235,2.39722-.13318.08813a3.07328,3.07328,0,0,1-4.69135-1.89526,3.10241,3.10241,0,0,1-.07318-.61115,3.00567,3.00567,0,0,1,.02551-.31171A3.0264,3.0264,0,0,1,11.169,7.25743c.07062-.00623.13757-.02386.20941-.02527l.05957-.00055a3.07374,3.07374,0,0,1,2.73248,4.47772l-.06812.13214L14.753,13.339ZM4.80383,6.586q.65094.00064,1.30194.00012.65744,0,1.31488-.00012c.20074-.00018.33234-.11328.32861-.2807a.286.286,0,0,0-.32269-.27576q-1.31488-.0011-2.62976-.00006a.29114.29114,0,0,0-.32794.283C4.47131,6.48185,4.598,6.58586,4.80383,6.586Zm.343-.81226c.20526.004.21216.00073.20367-.21118a.58548.58548,0,0,1,.29907-.55884.84114.84114,0,0,1,.56854-.11725.66485.66485,0,0,1,.64038.71417c-.00348.05048-.00049.10144-.00049.17.17554,0,.33752.0025.49927-.00311.02032-.00067.05432-.04248.05646-.06738a1.03608,1.03608,0,0,0-.2569-.84631A1.50545,1.50545,0,0,0,5.47858,4.55a1.06138,1.06138,0,0,0-.66455.75122,2.28612,2.28612,0,0,0-.00818.44708C4.91949,5.75718,5.033,5.77159,5.14679,5.77378ZM7.42572,7.57231c-.438.01-.8764.00317-1.3147.00317-.44684,0-.89374-.00085-1.34058.00037a.27648.27648,0,0,0-.30475.27655.28729.28729,0,0,0,.30676.2793q1.3277.00183,2.65533.00012a.286.286,0,0,0,.31738-.28131A.291.291,0,0,0,7.42572,7.57231Zm5.46735,2.24683a.43365.43365,0,1,0,.43365.43365A.43365.43365,0,0,0,12.89307,9.81913Zm-1.66193.127a.43368.43368,0,1,0,.61334,0A.43362.43362,0,0,0,11.23114,9.94615Zm-.99438-.127a.43365.43365,0,1,0,.43372.43365A.43365.43365,0,0,0,10.23676,9.81913Z" transform="translate(-0.42206 -1.40916)" fill="#159045"/>
</svg>
